<svg id="Layer_1" data-name="Layer 1" xmlns="http://www.w3.org/2000/svg" viewBox="0 0 4528.38 1161.9"><defs><style>.cls-1{fill:#d3d1d1;}.cls-1,.cls-24{stroke:#fff;stroke-linecap:round;stroke-miterlimit:10;stroke-width:16px;}.cls-2,.cls-3{font-size:761px;font-family:Futura-Medium, Futura;}.cls-2,.cls-20,.cls-3{fill:#0d1933;}.cls-2{letter-spacing:-0.01em;}.cls-3{letter-spacing:-0.01em;}.cls-4{letter-spacing:-0.03em;}.cls-5{letter-spacing:-0.04em;}.cls-6{fill:#871b08;}.cls-7{fill:#b70709;}.cls-8{fill:#c9a581;}.cls-9{fill:#030202;}.cls-10{fill:#c6a582;}.cls-11{fill:#050201;}.cls-12{fill:#ac7948;}.cls-13{fill:#fe514a;}.cls-14{fill:#f86237;}.cls-15{fill:#f4ac00;}.cls-16{fill:#565327;}.cls-17{fill:#f2ac06;}.cls-18{fill:#fb5349;}.cls-19{fill:#395f41;}.cls-21{fill:#386141;}.cls-22{fill:#881b07;}.cls-23{fill:#554110;}.cls-24{fill:none;}</style></defs><title>Artboard 1</title><circle class="cls-1" cx="436.47" cy="561.47" r="287.57"/><text class="cls-2" transform="translate(599.04 605.42)">T</text><text class="cls-3" transform="translate(957.03 605.42) scale(0.7)">RIVIA</text><text class="cls-2" transform="translate(2314.82 605.42)">P</text><text class="cls-3" transform="translate(2716.66 605.42) scale(0.7)">AR<tspan class="cls-4" x="1003.59" y="0">R</tspan><tspan class="cls-5" x="1439.61" y="0">O</tspan><tspan x="2090.03" y="0">T</tspan></text><path class="cls-6" d="M341.45,325.73a125.68,125.68,0,0,1,36.62-4.26c2.27.19,4.56.24,6.84.36a109.92,109.92,0,0,1,19,4,87.23,87.23,0,0,1,14.42,5.41c4.38,1.69,8.34,4.26,12.41,6.56,2,1.11,3.88,2.47,5.82,3.72,2.13,1.39,3.91,3.26,6.05,4.62A12.9,12.9,0,0,1,445,348c1.8,2,4.25,3.16,6,5.16,4.1,3.8,7.9,7.9,11.64,12,2.85,3.35,5.92,6.55,8.31,10.27,2.92,4.08,6.14,8,8.77,12.23,2.12,3.86,5.06,7.21,6.82,11.26-1.86-.19-4-.07-5.49-1.42a27.78,27.78,0,0,1-2.49-4c-4.14-6.63-8.81-12.91-13.58-19.1-5.2-6.11-10.24-12.41-16.33-17.68-2.95-2.81-6.15-5.34-9.3-7.92a70.84,70.84,0,0,0-6.23-4.54,69.92,69.92,0,0,0-6.55-4.23c-2.44-1.27-4.65-3-7.23-4-3.53-1.44-7-3-10.51-4.54a142,142,0,0,0-15.5-4.29c-4.78-.77-9.59-1.45-14.41-1.9-5.89-.48-11.76.34-17.63.74-9.83,1.08-19.39,3.7-29,5.88-9.76,2.63-19.7,5.66-28,11.62a18.29,18.29,0,0,0-6.46,7.41c-1.7,3.61-.2,7.68,1.43,11,1.57,2.29,2.87,5.14,5.62,6.22a46,46,0,0,1-1.54,5.13,16.55,16.55,0,0,1-4.21-4.32c-2.22-3-4.43-6-5.4-9.67a15.5,15.5,0,0,1,0-8.95c.79-2.78,2.68-5.06,4.5-7.24a44.82,44.82,0,0,1,13.48-8.54,44.39,44.39,0,0,1,10.64-4,121.24,121.24,0,0,1,19.07-5Z"/><path class="cls-7" d="M361.29,326.19c5.87-.41,11.74-1.23,17.63-.74,4.82.45,9.63,1.13,14.41,1.9a142,142,0,0,1,15.5,4.29c3.5,1.51,7,3.1,10.51,4.54,2.58,1,4.79,2.71,7.23,4a69.92,69.92,0,0,1,6.55,4.23,70.84,70.84,0,0,1,6.23,4.54c3.15,2.58,6.35,5.11,9.3,7.92,6.09,5.27,11.13,11.58,16.33,17.68,4.77,6.19,9.44,12.47,13.58,19.1a27.78,27.78,0,0,0,2.49,4c1.48,1.35,3.62,1.23,5.49,1.42a20.62,20.62,0,0,1,6.37,2.69c3.59,2.28,7.32,4.35,10.8,6.81s6.88,4.94,10.44,7.23c8.18,5.93,15.93,12.42,23.76,18.79.75.68,1.42,1.46,2.14,2.18,1.43,1.47,3.33,2.36,4.78,3.81,2.83,2.77,5.68,5.52,8.66,8.13,9,8.74,17.85,17.72,26,27.26a35.38,35.38,0,0,0,5.06,6.17c3.57,4.76,7.37,9.36,10.64,14.35,1.13,1.7,2.46,3.27,3.59,5,2.56,4.41,5.5,8.6,7.95,13.09,3.06,5.74,6,11.55,8.73,17.47,2,5.18,4.09,10.31,5.62,15.64.55,2.45,1.82,4.69,2,7.22,3,13.46,5.08,27.12,6.78,40.8,2.22,16,3,32.13,4.39,48.2.23,10.77,1.52,21.5,1.28,32.29.12-2,.17-4,.46-6-.18,7,.33,14,.8,21,.34,7.68,1,15.36,1.44,23a23.63,23.63,0,0,1,.05,7.51l-1.32.19c-.62-.11-1.23-.25-1.83-.38-.85-4.27-.8-8.65-1.26-13-1.21-13.15-2.39-26.33-4.54-39.37-1.36-12.25-3.74-24.36-6.1-36.46-1.51-8.1-3.5-16.11-5.62-24.08-.75-3-2-5.74-2.79-8.7a203.24,203.24,0,0,0-6.48-20.27,242.6,242.6,0,0,0-23.4-48,212.74,212.74,0,0,0-19.74-25.86c-3.09-2.93-6.14-5.91-9-9-2.46-2.72-5.54-4.77-8.22-7.25-2.7-2-5.1-4.44-7.92-6.31-3.89-2.83-7.49-6.06-11.56-8.65-11.42-8.33-23.57-15.77-34-25.36-4.72-4.62-9.53-9.24-13.14-14.81a70.78,70.78,0,0,1-8.46-17.73c-.64-2.28-1.22-4.58-1.86-6.87-.1-1.28,0-3.35,1.73-3.28,1.79-.35,2,1.86,2.4,3.09a64.33,64.33,0,0,0,11.17,25c7.81,10.55,18.49,18.45,29.09,26,12.37,8.61,24.86,17.1,36.28,27,3.43,2.86,6.6,6,9.91,9a191.73,191.73,0,0,1,26.9,33.32,237.31,237.31,0,0,1,21.41,42.72,374.3,374.3,0,0,1,16.74,57.28c1.28,6.29,2.75,12.56,3.49,18.94a14.27,14.27,0,0,0,.73,3c-.28-5.72-1-11.41-1.31-17.12-1.77-25.45-4.4-50.92-9.67-75.91C616.27,541.7,609,525.74,600.05,511c-15.92-26.1-36.9-48.75-59.7-69a369.89,369.89,0,0,0-43.12-33c-5.17-3.07-10.36-7.4-16.76-6.88-2.47-.05-4.1,1.94-6.07,3.05a14.11,14.11,0,0,1-2.11-.46,2.7,2.7,0,0,0-2.28.24c-7.93,4-15,9.5-21.56,15.45a6.25,6.25,0,0,0-1.81,3.05,55.08,55.08,0,0,0-4.07,3.83,74.67,74.67,0,0,0-9.13,10.8,33.41,33.41,0,0,0-3.39,5.19c-1.25,3-3.22,5.59-3.86,8.79l-.66-.15a24.44,24.44,0,0,1-1,4.83l-.78-.09c-.06,1.15-.11,2.3-.15,3.45l-.65-1.17c-.07,1.39-.15,2.78-.2,4.16l-.64-1.09a35.64,35.64,0,0,0-1.12,8.42l-.58-1.17c-.13,2.42-.27,4.84-.3,7.27l-.53-2.19c-.18,9.34-1.43,18.68-.4,28,.11,4.11.42,8.21.39,12.33.28-.75.26-1.57.54-2.31,0,3,.31,6,.34,9,.17-.9.34-1.79.51-2.68.07,2.45.22,4.91.34,7.36l.54-1.71c.08,2.29.21,4.58.31,6.88l.56-1.71c.11,2,.22,4,.28,6l.61-1.17c.07,1.69.16,3.37.24,5.06l.63-1.2c.07,1.69.16,3.37.24,5.06l.62-1.17c.06,1.54.14,3.08.22,4.62l.65-1.18c.08,1.68.16,3.36.22,5,.21-.4.42-.79.64-1.17.07,1.39.15,2.78.22,4.18l.64-1.16c.07,1.39.15,2.79.23,4.19l.64-1.17c0,1.33.1,2.65.16,4l.75-.34c0,1.12.07,2.24.11,3.36l.75-.37c0,1.12.08,2.25.12,3.38l.67-.34a42.72,42.72,0,0,0,1.15,5.88l.65-.3c0,1,.09,2,.11,2.94l.68-.36a8.41,8.41,0,0,0,.94,4.17,8.41,8.41,0,0,1,1,3.92l.56-.35c.25,1.85.78,3.65,1.21,5.47l.54-.28a19.48,19.48,0,0,0,1.07,4.59c1,.72,1.37,2,1.78,3.15a21.93,21.93,0,0,1,.87,4.19l.67-.34.1,2.52.76-.37q0,1.25.1,2.51l.77-.36c0,1,.08,2,.09,3l.76-.38c0,.8.07,1.61.11,2.43l.77-.12a30,30,0,0,1,1,4.47l.68-.31c0,.82.06,1.65.1,2.48l.68-.3a30.61,30.61,0,0,0,1,4.46l.77-.1c0,.77.08,1.54.12,2.31l.75-.13a72.39,72.39,0,0,0,3.93,9.78,17.77,17.77,0,0,1,.89,3.17l.79,0c.19,1,.39,2.05.58,3.09l.58-.16c.48,1.62,1,3.24,1.55,4.83.39,1.08,1.4,1.79,1.73,2.91.69,1.88,1.35,3.78,2.11,5.64l.58,0c.6,1.91,1.72,3.62,2.11,5.61l.52-.09a9.31,9.31,0,0,0,1.25,3.47c1.25,1.85,1.82,4,2.75,6,.74,1.75,1.83,3.33,2.42,5.14l.62,0c1,3.35,2.81,6.32,4.26,9.46.85,2.24,2.19,4.25,3.15,6.44,1.27,2.88,3.19,5.42,4.47,8.3,1.06,2.45,2.6,4.66,3.64,7.12a39.19,39.19,0,0,0,3,6.12,11.16,11.16,0,0,1,1.48,3.39l.48.09c1,2.59,2.84,4.75,3.92,7.31a56.38,56.38,0,0,0,3.5,7c1.74,2.9,2.86,6.14,4.85,8.89s3.18,6.17,5,9.16c1.18,2,1.82,4.32,3.27,6.17,1.82,2.33,2.75,5.18,4.41,7.62,1.8,3.24,3.44,6.58,5.48,9.69,1.2,2.38,2.15,4.92,3.86,7,1.36,1.62,1.85,3.72,3,5.48,1.71,1.7,2.37,4.1,3.6,6.12,1.69,3.11,3.32,6.26,5.29,9.2,1.59,2.85,3.09,5.74,4.87,8.48s3.07,5.56,4.54,8.37c.74,1.43,1.91,2.57,2.72,4a78.18,78.18,0,0,0,5,8.76c.84,1.42,1.25,3.06,2.22,4.42,2.8,3.59,4.78,7.74,7.13,11.63,1.34,2.44,2.83,4.8,4.1,7.28,1.2,2.29,2.85,4.33,4,6.66,1.35,2.82,3.33,5.29,4.66,8.12a43.77,43.77,0,0,1,2.74,6.57l.6,0c.42,1.33.83,2.66,1.2,4,.17-.09.34-.18.51-.26.22,2.76,2.22,5,2.07,7.84.18-.42.37-.83.57-1.22,0,1,.12,2.1.17,3.16.25-.13.5-.25.75-.36,0,1,.09,2,.1,2.95l.75-.36c.06,1.19.12,2.38.17,3.58.22-.4.43-.8.65-1.2,0,1.18.1,2.38.15,3.57l.65-.31c.68,4.67,2.89,9.06,2.87,13.83.2-.39.4-.77.61-1.15.06,1.33.13,2.66.19,4,.24-.13.48-.25.72-.37.06,1.47.13,2.94.18,4.41.19-.37.39-.74.59-1.1a43.18,43.18,0,0,1,1.17,8.43c.19-.4.39-.79.59-1.18.09,1.82.18,3.64.23,5.47.21-.39.43-.78.65-1.16.06,1.47.13,2.95.19,4.43.23-.13.46-.25.71-.36,0,1.4.09,2.81.14,4.23.23-.12.47-.24.71-.34.06,1.63.15,3.26.23,4.9.19-.58.37-1.15.57-1.71.05,1.84.16,3.68.26,5.52.2-.4.41-.78.62-1.17.09,1.82.19,3.64.24,5.47.2-.4.41-.79.62-1.17.09,1.55.19,3.11.28,4.67.19-.58.37-1.15.56-1.71.07,1.84.18,3.69.26,5.53.21-.4.42-.8.63-1.19.06,1.47.12,2.95.19,4.43.24-.13.47-.25.71-.36.06,1.33.12,2.65.19,4,.2-.39.4-.78.61-1.16.11,1.91.06,3.92.91,5.7a28.56,28.56,0,0,1,2,6.4,5.3,5.3,0,0,1,.51-.21,6.87,6.87,0,0,0,1.51,3.5c1.41,1.48,2.19,3.48,3.84,4.74,1.11,1,2.6,1.92,2.93,3.52,3.35,26.41,7,52.81,10.27,79.23.36,4.35,1.35,8.62,1.69,13,.71,4.66,1.31,9.35,1.82,14,1.45,10.73,3.3,21.42,4,32.24,0,7.11.38,14.64-2.94,21.17a7.35,7.35,0,0,1-4.9,4.2,11,11,0,0,1-9.14-2.86,30.52,30.52,0,0,1-7-10.18,66.43,66.43,0,0,1-4-10.64c-2.75-9.8-4.25-19.88-6.3-29.83-1.26-6-2.23-12.07-3.8-18-1.33-.27-3-.21-3.83-1.48-3.83-5.11-6.26-11.07-9-16.77-1.93-4.46-3.46-9.09-5.38-13.55s-3.24-9.34-5-14c-1.5-4.38-3.17-8.7-4.56-13.11-1.19-3.6-2.79-7-3.93-10.66S563,994,561.54,990.47c-3.24-8.75-6.75-17.39-10-26.13-2.73-7.29-5.71-14.48-8.35-21.81-1.59-3.68-2.63-7.56-4.17-11.26-1.77-4.42-2.89-9.06-4.57-13.5-1.2-3.29-2-6.7-3.42-9.92a97,97,0,0,0-11.42-21.71,78.31,78.31,0,0,0-10-12.42c-2-1.9-3.53-4.21-5.65-6-2.53-2.06-4.68-4.52-7.21-6.57-3.49-3-6.19-6.7-9.51-9.84-1.75-1.7-3.46-3.44-5-5.3-6-6.93-12.34-13.49-18.22-20.5-1.89-2.26-3.93-4.4-5.76-6.72-2.22-2.8-4.71-5.36-6.85-8.22-2.58-3.43-5.62-6.47-8.08-10q-7.65-9.39-14.84-19.15c-3.87-4.81-7.29-10-10.8-15-3.2-4.18-6-8.67-8.91-13-2.24-3.25-4.16-6.69-6.4-9.94-5.9-9.32-11.35-18.91-16.48-28.67a350.86,350.86,0,0,1-17.79-39c-5.7-15.82-10.49-32.06-12.79-48.75-.86-4.32-1-8.73-1.54-13.1-.39-3.63-.23-7.29-.31-10.93,0-4.41,0-8.83.24-13.23.58-5.57,1.23-11.14,2.27-16.64.65-4,1.85-7.87,2.85-11.78.74-2.87,2-5.58,2.7-8.45.66-2.64-1.41-4.82-2.44-7a131.23,131.23,0,0,1-6.61-17A276.85,276.85,0,0,1,342,469.15c-.18-2.64-.47-5.36.38-7.93a4,4,0,0,0-.54-3.67,65.2,65.2,0,0,1,.06-8.2c.23-3,.44-6.11,1.84-8.84a13.85,13.85,0,0,0,1.4-.08c2.68.71,5.46.93,8.17,1.48a34.16,34.16,0,0,0,12.21.46c4.32-1.12,7.78-4.12,11.17-6.86,2.3-1.84,4.07-4.23,6.09-6.35a23.75,23.75,0,0,0,4.12-7c1-2.41.59-5.24,2-7.49,1-1.68,2.29-3.21,3.16-5,1.54-3.22,3.4-6.29,4.68-9.63,4.32-10.26,5.89-21.9,3.1-32.78-.76-2.41-1.77-4.74-2.71-7.09a32.53,32.53,0,0,0-7.24-10.46,27.3,27.3,0,0,0-8.42-5.83,31.36,31.36,0,0,0-11.2-2.68,36.46,36.46,0,0,0-8,1.31c-3,.76-5.4,2.74-7.71,4.66-4.26,3.53-7.12,8.42-9.38,13.4a77.11,77.11,0,0,0-3.86,12.34c-.71,0-1.57-.52-2.16.07-2.94-3.67-6.13-7.34-10.44-9.42-4.6-2.23-9.93-4-15-2.52a14,14,0,0,0-8.89,7.28c-2.75-1.08-4-3.92-5.62-6.22-1.63-3.34-3.12-7.41-1.43-11a18.29,18.29,0,0,1,6.46-7.41c8.3-6,18.24-9,28-11.62,9.62-2.18,19.19-4.8,29-5.88Z"/><path d="M362.34,342.52a36.46,36.46,0,0,1,8-1.31,31.36,31.36,0,0,1,11.2,2.68,27.3,27.3,0,0,1,8.42,5.83,32.53,32.53,0,0,1,7.24,10.46c.94,2.34,1.95,4.67,2.71,7.09,2.8,10.87,1.22,22.52-3.1,32.78-1.28,3.34-3.13,6.41-4.68,9.63-.87,1.78-2.13,3.31-3.16,5-1.44,2.25-1,5.08-2,7.49a23.75,23.75,0,0,1-4.12,7c-2,2.12-3.79,4.5-6.09,6.35-3.39,2.74-6.85,5.74-11.17,6.86a34.16,34.16,0,0,1-12.21-.46c-2.71-.55-5.49-.77-8.17-1.48l.65-.29a19.54,19.54,0,0,1-6-1.37q-3.35-1.43-6.71-2.82a25.26,25.26,0,0,1,.53-7.48c2-8,5.88-15.29,8.82-22.93,1.7-4.12,3.18-8.45,3.24-13,0-2.77.19-5.62-.65-8.3A33.45,33.45,0,0,0,339.22,373c.59-.59,1.46-.12,2.16-.07a77.11,77.11,0,0,1,3.86-12.34c2.26-5,5.12-9.87,9.38-13.4,2.31-1.92,4.74-3.91,7.71-4.66m-6.65,8.74c-4.27,4.5-7,10.24-8.85,16.09a26.44,26.44,0,0,0-1.83,8.75c1.67,1.1,3.51,1.91,5.07,3.18,1.85,1.52,4,2.53,6,3.87,2.59,1.56,5.1,3.24,7.68,4.82,1.56,1,2.88,2.29,4.53,3.14,2.65,1.4,4.68,3.69,7.19,5.32a25.8,25.8,0,0,1,4.45,4.17c2.74,2.91,6.08,5.42,7.9,9.06a67.48,67.48,0,0,0,4.27-8.28,59.41,59.41,0,0,0,4.78-14,46.68,46.68,0,0,0,.36-13.45,34.58,34.58,0,0,0-13.74-24.67c-3.75-2.23-7.88-4.15-12.33-4.23-5.77-.33-11.35,2.33-15.5,6.2Z"/><path class="cls-8" d="M355.69,351.27c4.15-3.87,9.73-6.53,15.5-6.2,4.45.08,8.58,2,12.33,4.23A34.58,34.58,0,0,1,397.26,374a46.68,46.68,0,0,1-.36,13.45,59.41,59.41,0,0,1-4.78,14,67.48,67.48,0,0,1-4.27,8.28c-1.83-3.64-5.16-6.15-7.9-9.06a25.81,25.81,0,0,0-4.45-4.17c-2.5-1.63-4.53-3.92-7.19-5.32-1.65-.85-3-2.16-4.53-3.14-2.58-1.58-5.09-3.26-7.68-4.82-2-1.34-4.16-2.34-6-3.87-1.56-1.26-3.4-2.07-5.07-3.18a26.44,26.44,0,0,1,1.83-8.75c1.87-5.86,4.58-11.59,8.85-16.09m15.63-1.64c-3.11,1.11-5.85,3.82-6.26,7.22-.29,2.61-.36,5.87,1.91,7.67,4.44,4.11,10.91,5,16.72,4.32,1.87-.14,4-1.11,4.54-3.08a9.4,9.4,0,0,0-1.41-7.74c-1.2-2.29-3.2-4-5-5.83a39.81,39.81,0,0,0-4.28-2.52,14.76,14.76,0,0,0-6.27,0Z"/><path class="cls-9" d="M371.32,349.62a14.76,14.76,0,0,1,6.27,0,39.81,39.81,0,0,1,4.28,2.52c1.76,1.85,3.76,3.53,5,5.83a9.4,9.4,0,0,1,1.41,7.74c-.51,2-2.68,2.93-4.54,3.08-5.82.71-12.28-.21-16.72-4.32-2.27-1.8-2.19-5.06-1.91-7.67.41-3.4,3.15-6.11,6.26-7.22m-1,6.33c-.54,1.65-1.17,3.91.4,5.19,3.51,2.95,8.52,3.05,12.85,2.51,0-2.66-1.94-4.7-3.63-6.53-2.1-1.55-4.64-3.52-7.42-2.71-.88.24-2,.49-2.21,1.54Z"/><path class="cls-10" d="M370.36,356c.21-1,1.33-1.3,2.21-1.54,2.78-.81,5.32,1.16,7.42,2.71,1.69,1.83,3.66,3.87,3.63,6.53-4.33.55-9.35.44-12.85-2.51-1.57-1.29-.94-3.55-.4-5.19m4.83,1.41a17.19,17.19,0,0,0,.11,3.61,2.68,2.68,0,0,0,2.75,1.41c1.12,0,2.9.3,3.12-1.24.53-1.28-.64-2.44-1.86-2.58a10.4,10.4,0,0,1-4.13-1.2Z"/><path class="cls-11" d="M375.19,357.36a10.4,10.4,0,0,0,4.13,1.2c1.22.14,2.39,1.3,1.86,2.58-.23,1.54-2,1.22-3.12,1.24A2.68,2.68,0,0,1,375.3,361a17.19,17.19,0,0,1-.11-3.61Z"/><path class="cls-12" d="M313.75,361.06c5.1-1.51,10.43.29,15,2.52,4.31,2.08,7.5,5.76,10.44,9.42A33.45,33.45,0,0,1,345,384.29c.83,2.68.68,5.53.65,8.3-.06,4.5-1.54,8.83-3.24,13-2.94,7.64-6.84,14.94-8.82,22.93a25.26,25.26,0,0,0-.53,7.48,19.18,19.18,0,0,0,.57,6.73,41.07,41.07,0,0,0,4.13,9.35c.31-2.91.25-5.88,1.11-8.71-.19,2.74-.65,5.47-.59,8.22.06,2.5,2,4.28,3.56,6a4,4,0,0,1,.54,3.67c-1.55.46-3.06-.21-4.41-.93-1.31-2.48-3.58-4.22-5.56-6.14-2.34-1.81-4.22-4.12-6.54-5.94-1.91-1.52-3.4-3.49-5.34-5s-3.61-3.55-5.55-5.2c-3.55-3.05-6.64-6.58-10.1-9.73-1.93-1.69-3.26-3.9-4.94-5.81a47.37,47.37,0,0,1-8.1-13.4,36.89,36.89,0,0,1-1.71-8.77,38.14,38.14,0,0,1,2-10.79c1.91-3.21,3.44-6.67,5.77-9.62.93-1.08,1.85-2.17,2.78-3.25s2.1-1.9,2.65-3.21a46,46,0,0,0,1.54-5.13,14,14,0,0,1,8.89-7.28m-4.41,7.11c-2,2.36-1.29,5.92-3.44,8.18-4.35,4.87-8.67,10.07-10.75,16.37a21.8,21.8,0,0,0,.13,14.65,45.17,45.17,0,0,0,9,14.27c3.66,4.62,8.06,8.57,12.19,12.76,3.26,3.05,6.65,6,9.88,9.06a38.21,38.21,0,0,0,4.82,4.16c-1.53-5.28-2.59-10.83-1.76-16.33,1.26-10,6.42-18.79,9.86-28.08,2.22-5.6,3.5-11.84,2.07-17.8s-5.21-10.87-9.39-15.11a21.81,21.81,0,0,0-14.09-5.79c-3.16-.08-6.57,1-8.49,3.64Z"/><path class="cls-8" d="M309.34,368.17c1.92-2.66,5.33-3.73,8.49-3.64a21.81,21.81,0,0,1,14.09,5.79c4.19,4.24,8,9.19,9.39,15.11s.15,12.2-2.07,17.8c-3.44,9.29-8.6,18.1-9.86,28.08-.83,5.5.23,11,1.76,16.33a38.21,38.21,0,0,1-4.82-4.16c-3.24-3.09-6.63-6-9.88-9.06-4.13-4.19-8.54-8.14-12.19-12.76a45.17,45.17,0,0,1-9-14.27,21.8,21.8,0,0,1-.13-14.65c2.07-6.3,6.39-11.51,10.75-16.37C308.05,374.09,307.34,370.53,309.34,368.17Z"/><path class="cls-13" d="M474.4,405.14c2-1.11,3.61-3.1,6.07-3.05,6.4-.52,11.59,3.8,16.76,6.88a369.89,369.89,0,0,1,43.12,33c22.8,20.22,43.78,42.87,59.7,69,8.95,14.77,16.22,30.74,19.85,47.69,5.27,25,7.9,50.45,9.67,75.91.34,5.71,1,11.4,1.31,17.12a14.27,14.27,0,0,1-.73-3c-.73-6.39-2.21-12.65-3.49-18.94a374.3,374.3,0,0,0-16.74-57.28,237.31,237.31,0,0,0-21.41-42.72,191.73,191.73,0,0,0-26.9-33.32c-3.31-3-6.48-6.17-9.91-9-11.42-9.86-23.91-18.36-36.28-27-10.6-7.53-21.28-15.42-29.09-26a64.33,64.33,0,0,1-11.17-25c-.36-1.23-.61-3.45-2.4-3.09-1.78-.07-1.83,2-1.73,3.28l-2.08.5c-2.36.24-3.92,2.19-5.88,3.3-4.8,2.94-8.68,7.07-13.13,10.47a9.33,9.33,0,0,0-1.36-.57c0-2.22,2.2-3.18,3.63-4.45,2.29-2,4.49-4.12,6.94-6,4-3.37,8.76-5.55,13.14-8.32a14.11,14.11,0,0,0,2.11.46Z"/><path class="cls-14" d="M470,404.92a2.7,2.7,0,0,1,2.28-.24c-4.38,2.77-9.16,4.95-13.14,8.32-2.44,1.83-4.65,3.94-6.94,6-1.43,1.27-3.65,2.22-3.63,4.45a9.33,9.33,0,0,1,1.36.57c4.45-3.4,8.33-7.53,13.13-10.47,2-1.11,3.52-3.06,5.88-3.3a35,35,0,0,1-4.35,3.09A121.15,121.15,0,0,0,451.25,424c-.94,1-2.34.76-3.55.61l-1-1.2a6.25,6.25,0,0,1,1.81-3.05C455,414.41,462.08,408.91,470,404.92Z"/><path class="cls-15" d="M469,410.2l2.08-.5c.65,2.28,1.23,4.58,1.86,6.87a70.78,70.78,0,0,0,8.46,17.73c3.62,5.57,8.43,10.19,13.14,14.81,10.45,9.59,22.59,17,34,25.36,4.07,2.59,7.67,5.82,11.56,8.65,2.82,1.87,5.21,4.29,7.92,6.31,2.68,2.49,5.76,4.53,8.22,7.25,2.9,3.12,6,6.1,9,9A212.74,212.74,0,0,1,585,531.57a242.6,242.6,0,0,1,23.4,48,203.25,203.25,0,0,1,6.48,20.27c.75,3,2,5.74,2.79,8.7,2.11,8,4.11,16,5.62,24.08,2.35,12.09,4.73,24.21,6.1,36.46A27.8,27.8,0,0,1,629,676c-1.31-2.68-1.86-5.63-2.8-8.44a228.21,228.21,0,0,0-12.81-31.47,257,257,0,0,0-27.09-42.61c-3-4-6.4-7.67-9.55-11.54-4.63-5.8-10-11-14.93-16.48-11.2-11.75-23.06-22.85-35-33.82-4.76-4.72-9.94-9-14.72-13.68-6.48-6.14-13-12.19-19.31-18.55-10-10.44-19.89-21.17-27.67-33.42a98.16,98.16,0,0,1-13.92-31.72c-.72-2.43-.81-5-1.57-7.42-.22-.86-1.17-1.09-1.85-1.48l-.1-.77c1.21.15,2.62.41,3.55-.61a121.15,121.15,0,0,1,13.36-10.73A35,35,0,0,0,469,410.2Z"/><path class="cls-16" d="M442.58,427.24a55.08,55.08,0,0,1,4.07-3.83l1,1.2.1.77-1,.12c-1,.21-2.22.41-2.33,1.62-1.09,4.81-1.48,9.75-2.12,14.63a69.43,69.43,0,0,1,.37-8.35c.37-1.91.88-3.8,1.06-5.74l-1.21-.41Z"/><path class="cls-17" d="M444.48,427.11c.11-1.21,1.37-1.41,2.33-1.62a5.8,5.8,0,0,0-.62,3.15c.3,2.25.66,4.49.88,6.74-1.14,5-.68,10.18-.77,15.27a98.93,98.93,0,0,0,2,20.57c1,3,1.15,6.21,2,9.25,1.39,3.62,2.1,7.45,3.29,11.13.68,2.25,1.54,4.43,2.32,6.63,1.57,5,3.75,9.87,5.61,14.81,2,4.64,4.39,9.13,6.44,13.76,1.13,2.52,2.53,4.9,3.79,7.35,2.44,4.6,4.47,9.41,7.31,13.78q7.89,13.91,16.42,27.46a118.6,118.6,0,0,0,7.8,12c3.57,5.37,6.66,11.05,10.48,16.27,2.15,2.77,3.78,5.89,5.94,8.64,1.91,2.43,3.46,5.12,5.35,7.57,2.68,3.56,4.72,7.55,7.38,11.11,2.55,3.12,4.4,6.73,6.84,9.94,2.07,3.46,4.69,6.52,6.88,9.9,6,7.94,10.71,16.71,16.58,24.72,2.1,2.84,3.63,6,5.73,8.89,2.58,3.52,4.69,7.36,7.06,11,3,4.78,6.09,9.55,8.76,14.55,6.87,10.67,12.69,22,18.92,33,5.92,12.28,12.33,24.35,17.21,37.1,1.43,3.44,3.15,6.75,4.35,10.28,2,4.49,3.27,9.23,5.19,13.74,1.57,4.26,2.93,8.61,4.26,12.95,2.22,6,3.17,12.28,5.22,18.28,0-5.62-.79-11.2-.89-16.82-1-16.08-1.88-32.18-2.8-48.26-.57-7.87-.74-15.77-1.48-23.63a16.71,16.71,0,0,0,2.23-.91c.56-.5.53-1.34.63-2,.19-5.91-.13-11.83-.16-17.74.55,1.54.22,3.21.34,4.81q.56,7.45.69,14.94c.21-.21.42-.41.64-.6-.36,5.27.18,10.52.41,15.78.4,5.59.71,11.2,1,16.8a52.38,52.38,0,0,1,.68,9c.71,4.56.24,9.18.62,13.76.31,6.63.86,13.24,1.14,19.88.37,3,.27,5.93.37,8.9.05,2.48,1,4.86.89,7.35-.1,5.29.44,10.56.8,15.84.2,3.69.79,7.43.15,11.11l-1.4.44a12.15,12.15,0,0,1-1.78-.92c-.59-1.49-.58-3.13-1-4.65-1-3.24-.86-6.73-2.06-9.92-.82-5.06-2.31-10-3.51-15-.76-3-1.9-6-2.53-9-.57-2.73-1.9-5.22-2.5-7.95-.83-3.66-2.54-7-3.59-10.63-1.54-4-2.51-8.15-4.27-12-3.15-8-6.38-15.87-9.93-23.65-1.72-3.45-3.11-7.06-5-10.41-2.26-4-4.2-8.17-6.17-12.31-1-2.19-2.46-4.17-3.5-6.35a103.16,103.16,0,0,0-7.09-13.1A94.42,94.42,0,0,0,582.75,715c-2.84-4.4-4.87-9.3-8.11-13.43-2.1-3.71-4.55-7.21-6.78-10.84-4.37-6.57-8.19-13.49-12.8-19.89-1.82-2.64-3.69-5.25-5.4-8s-3.32-5.5-5.34-8c-4.52-5.91-8.37-12.28-12.59-18.39-4-5.52-7.5-11.35-11.58-16.79-2.93-4.75-6.38-9.15-9.44-13.82-2.44-3.87-5-7.64-7.47-11.5-2.16-3.42-4.67-6.6-6.69-10.11-1.69-2.84-3.61-5.54-5.36-8.34-2-3.64-4.28-7.14-6.63-10.57-1.86-2.72-3.06-5.81-4.78-8.61-6.72-10.79-12.24-22.25-18-33.57-5.69-12.89-11.18-25.93-14.71-39.6-1-4.66-2.44-9.24-3.12-14a107.26,107.26,0,0,1-1.53-14.21c0-4.55.09-9.1-.06-13.65.63-4.88,1-9.82,2.12-14.63Z"/><path class="cls-18" d="M446.81,425.5l1-.12c.68.38,1.64.62,1.85,1.48.76,2.42.85,5,1.57,7.42A98.16,98.16,0,0,0,465.14,466c7.78,12.25,17.66,23,27.67,33.42,6.27,6.36,12.84,12.41,19.31,18.55,4.78,4.7,10,9,14.72,13.68,12,11,23.81,22.08,35,33.82,5,5.52,10.3,10.68,14.93,16.48,3.15,3.87,6.59,7.52,9.55,11.54a257,257,0,0,1,27.09,42.61,228.21,228.21,0,0,1,12.81,31.47c.94,2.81,1.49,5.76,2.8,8.44a27.8,27.8,0,0,0,.34-6.89c2.15,13,3.33,26.22,4.54,39.37.46,4.32.41,8.7,1.26,13,.6.12,1.21.27,1.83.38,0,1.37,0,2.75,0,4.13,0,5.91.35,11.83.16,17.74-.1.68-.07,1.51-.63,2a16.71,16.71,0,0,1-2.23.91,5.64,5.64,0,0,1-1.43-4.22c-.28-6.61-1-13.21-1.11-19.83,0-2-.74-4-.62-6,.1-3.46-.16-6.91-.25-10.36,0-2.53-1.25-4.84-1.38-7.36-.18-4.49-2.16-8.7-2.11-13.22-.18.39-.34.78-.51,1.18a47.89,47.89,0,0,0-1.77-9.07c-.63-2.46-1.76-4.75-2.25-7.25s-1.72-4.59-2.46-6.93a77.27,77.27,0,0,0-3.11-8.58A195.39,195.39,0,0,0,606,630.27c-2.55-4-4.31-8.42-7.18-12.19-2.48-3.82-4.87-7.7-7.62-11.33-1.34-1.73-2.43-3.62-3.67-5.41-6.08-7.52-11.86-15.3-18.35-22.48-1.64-1.79-3.55-3.32-5.14-5.16-3.52-4.36-8-7.8-11.52-12.18-1.93-2.36-4.26-4.34-6.37-6.54-4.26-4.51-9.3-8.18-13.63-12.62-5.57-5-11-10.27-16.54-15.29-2-1.92-4.11-3.62-6-5.61-3-3.14-6.54-5.79-9.5-9-2.74-3-5.71-5.77-8.55-8.67s-5.53-5.66-8.45-8.33a28,28,0,0,1-3.45-3.87c-1.53-2-3.45-3.71-5.09-5.64-11-13.44-21-28.22-26-45a27.72,27.72,0,0,0-1.86-5.53c-.22-2.25-.59-4.5-.88-6.74a5.8,5.8,0,0,1,.62-3.15Z"/><path class="cls-19" d="M433.44,438a74.67,74.67,0,0,1,9.13-10.8l1.21.41c-.18,1.94-.69,3.83-1.06,5.74a16,16,0,0,0-2.33,2.14c-8.57,10.26-13.68,23.05-16,36.14-3.63,21.16-1.16,42.83,3.14,63.7A406.81,406.81,0,0,0,443.24,589c2.69,6.94,5.09,14,8,20.84,6.73,16.77,14.09,33.28,21.81,49.61,2.9,5.74,5.49,11.64,8.44,17.37C498.53,711.3,517,745,536.07,778.44c12.55,22.22,25.47,44.23,38.25,66.32,3.56,6.2,7.35,12.28,10.58,18.67,7.18,15.15,11.28,31.49,15.09,47.74q3,13,5.72,26.1c1.76,7.87,3.42,15.78,5.77,23.51,1,3.19,2.14,6.43,4.35,9,2.68,3.21,7,4.35,9.85,7.36,1.86,1.82,2.62,4.44,4.47,6.28,2.52,2.5,5.19,4.85,7.85,7.21,3.81,3.16,7.53,6.82,12.4,8.24.06-3.86-1-7.58-1.49-11.38-3-20.49-4.54-41.14-6.08-61.77-1.59-21.92-2.85-43.87-4-65.82-.13-3.79-.53-7.56-.37-11.35,1.2,3.2,1.06,6.68,2.06,9.92.46,1.52.45,3.16,1,4.65a12.15,12.15,0,0,0,1.78.92c-.06,6.36.59,12.69.81,19,.48,8,1.13,16,1.33,24.09.52,5.31.95,10.63,1.19,16,0,2.59.65,5.14.6,7.74.3,4.89.7,9.78,1.22,14.66.81,11.66,2.14,23.26,3.54,34.86.51,3.8,1,7.61,1.64,11.39.43,3,1.36,6.08.34,9-1.18,2.17-4.17,2.52-6.26,1.57a28,28,0,0,1-9.4-6.11c-1.52-1.52-3.55-2.42-5-4a105,105,0,0,1-7.9-7.57c-.92-1.36-1.47-3-2.65-4.11-2.19-2.58-5.2-4.22-8.13-5.8-1.65-1.26-2.43-3.27-3.84-4.74a6.87,6.87,0,0,1-1.51-3.5,5.3,5.3,0,0,0-.51.21,28.56,28.56,0,0,0-2-6.4c-.85-1.77-.8-3.78-.91-5.7-.21.38-.41.77-.61,1.16-.06-1.33-.13-2.66-.19-4-.24.11-.48.23-.71.36-.06-1.48-.13-3-.19-4.43-.21.39-.42.78-.63,1.19-.08-1.85-.19-3.69-.26-5.53-.19.56-.38,1.14-.56,1.71-.09-1.56-.19-3.12-.28-4.67-.21.38-.42.77-.62,1.17,0-1.82-.15-3.65-.24-5.47-.21.38-.42.77-.62,1.17-.1-1.84-.21-3.68-.26-5.52-.19.56-.38,1.13-.57,1.71-.09-1.64-.17-3.27-.23-4.9-.24.11-.48.22-.71.34,0-1.41-.1-2.82-.14-4.23-.24.11-.47.23-.71.36-.05-1.48-.12-3-.19-4.43-.22.38-.43.77-.65,1.16-.06-1.82-.15-3.65-.23-5.47-.2.39-.4.78-.59,1.18a43.18,43.18,0,0,0-1.17-8.43c-.2.36-.4.73-.59,1.1-.05-1.48-.12-2.95-.18-4.41-.24.12-.48.24-.72.37-.06-1.34-.12-2.67-.19-4-.21.37-.41.76-.61,1.15,0-4.77-2.19-9.16-2.87-13.83l-.65.31c-.06-1.19-.11-2.38-.15-3.57-.22.39-.44.79-.65,1.2-.05-1.2-.11-2.39-.17-3.58l-.75.36c0-1-.09-2-.1-2.95-.25.11-.51.23-.75.36,0-1.06-.13-2.11-.17-3.16-.21.4-.4.8-.57,1.22.14-2.84-1.85-5.08-2.07-7.84-.17.08-.34.16-.51.26-.37-1.35-.78-2.68-1.2-4l-.6,0a43.78,43.78,0,0,0-2.74-6.57c-1.33-2.84-3.3-5.31-4.66-8.12-1.13-2.34-2.78-4.37-4-6.66-1.27-2.48-2.76-4.84-4.1-7.28-2.35-3.89-4.32-8-7.13-11.63-1-1.36-1.37-3-2.22-4.42a78.18,78.18,0,0,1-5-8.76c-.81-1.39-2-2.53-2.72-4-1.48-2.81-2.84-5.69-4.54-8.37s-3.28-5.63-4.87-8.48c-2-2.94-3.61-6.09-5.29-9.2-1.23-2-1.88-4.43-3.6-6.12-1.11-1.76-1.61-3.86-3-5.48-1.7-2.1-2.65-4.63-3.86-7-2-3.11-3.68-6.44-5.48-9.69-1.66-2.44-2.59-5.29-4.41-7.62-1.46-1.85-2.1-4.16-3.27-6.17-1.77-3-2.89-6.35-5-9.16s-3.11-6-4.85-8.89a56.38,56.38,0,0,1-3.5-7c-1.08-2.56-2.9-4.72-3.92-7.31l-.48-.09a11.16,11.16,0,0,0-1.48-3.39,39.19,39.19,0,0,1-3-6.12c-1-2.46-2.58-4.67-3.64-7.12-1.27-2.88-3.19-5.43-4.47-8.3-1-2.19-2.29-4.2-3.15-6.44-1.45-3.14-3.3-6.11-4.26-9.46l-.62,0c-.59-1.82-1.68-3.39-2.42-5.14-.93-2-1.5-4.19-2.75-6a9.31,9.31,0,0,1-1.25-3.47l-.52.09c-.39-2-1.51-3.7-2.11-5.61l-.58,0c-.77-1.86-1.42-3.76-2.11-5.64-.33-1.12-1.34-1.83-1.73-2.91-.57-1.6-1.08-3.21-1.55-4.83l-.58.16c-.19-1-.39-2.06-.58-3.09l-.79,0a17.77,17.77,0,0,0-.89-3.17,72.39,72.39,0,0,1-3.93-9.78l-.75.13c0-.77-.08-1.54-.12-2.31l-.77.1a30.61,30.61,0,0,1-1-4.46l-.68.3c0-.83-.07-1.66-.1-2.48l-.68.31a30,30,0,0,0-1-4.47l-.77.12c0-.81-.07-1.62-.11-2.43l-.76.38c0-1-.09-2-.09-3l-.77.36q-.06-1.26-.1-2.51l-.76.37-.1-2.52-.67.34a21.93,21.93,0,0,0-.87-4.19c-.4-1.14-.73-2.44-1.78-3.15a19.48,19.48,0,0,1-1.07-4.59l-.54.28c-.43-1.82-1-3.62-1.21-5.47l-.56.35a8.41,8.41,0,0,0-1-3.92,8.41,8.41,0,0,1-.94-4.17l-.68.36c0-1-.09-2-.11-2.94l-.65.3a42.72,42.72,0,0,1-1.15-5.88l-.67.34c0-1.13-.09-2.25-.12-3.38l-.75.37c0-1.12-.08-2.24-.11-3.36l-.75.34c-.06-1.33-.12-2.65-.16-4l-.64,1.17c-.07-1.4-.15-2.79-.23-4.19l-.64,1.16c-.07-1.39-.15-2.79-.22-4.18-.22.39-.43.78-.64,1.17-.06-1.68-.15-3.36-.22-5l-.65,1.18c-.08-1.54-.16-3.08-.22-4.62l-.62,1.17c-.08-1.69-.17-3.37-.24-5.06l-.63,1.2c-.08-1.69-.17-3.37-.24-5.06l-.61,1.17c-.06-2-.17-4-.28-6l-.56,1.71c-.09-2.29-.23-4.58-.31-6.88l-.54,1.71c-.12-2.45-.27-4.91-.34-7.36-.18.89-.34,1.79-.51,2.68,0-3-.3-6-.34-9-.28.74-.26,1.57-.54,2.31,0-4.11-.28-8.22-.39-12.33-1-9.33.22-18.67.4-28l.53,2.19c0-2.42.16-4.84.3-7.27l.58,1.17a35.64,35.64,0,0,1,1.12-8.42l.64,1.09c.06-1.39.13-2.78.2-4.16l.65,1.17c0-1.15.09-2.3.15-3.45l.78.09a24.44,24.44,0,0,0,1-4.83l.66.15c.65-3.2,2.62-5.83,3.86-8.79a33.39,33.39,0,0,1,3.39-5.19Z"/><path class="cls-20" d="M440.39,435.54a16,16,0,0,1,2.33-2.14,69.43,69.43,0,0,0-.37,8.35c.15,4.55.06,9.1.06,13.65A107.26,107.26,0,0,0,444,469.6c.69,4.73,2.1,9.32,3.12,14,3.53,13.67,9,26.72,14.71,39.6,5.75,11.32,11.28,22.78,18,33.57,1.72,2.8,2.93,5.89,4.78,8.61,2.34,3.43,4.6,6.93,6.63,10.57,1.75,2.8,3.67,5.5,5.36,8.34,2,3.5,4.54,6.69,6.69,10.11,2.45,3.86,5,7.63,7.47,11.5,3.05,4.67,6.5,9.07,9.44,13.82,4.09,5.44,7.62,11.26,11.58,16.79,4.22,6.11,8.06,12.48,12.59,18.39,2,2.5,3.52,5.36,5.34,8s3.58,5.33,5.4,8c4.61,6.4,8.44,13.33,12.8,19.89,2.23,3.64,4.68,7.13,6.78,10.84,3.24,4.13,5.27,9,8.11,13.43a94.42,94.42,0,0,1,7.63,13.07,103.16,103.16,0,0,1,7.09,13.1c1,2.18,2.47,4.16,3.5,6.35,2,4.14,3.91,8.31,6.17,12.31,1.91,3.35,3.3,7,5,10.41,3.55,7.77,6.78,15.7,9.93,23.65,1.76,3.89,2.74,8.06,4.27,12,1,3.59,2.76,7,3.59,10.63.6,2.72,1.93,5.21,2.5,7.95.63,3.07,1.77,6,2.53,9,1.2,5,2.68,9.89,3.51,15-.16,3.79.24,7.56.37,11.35,1.11,22,2.38,43.9,4,65.82,1.54,20.64,3.11,41.29,6.08,61.77.45,3.8,1.55,7.53,1.49,11.38-4.87-1.42-8.6-5.07-12.4-8.24-2.66-2.35-5.33-4.71-7.85-7.21-1.85-1.84-2.61-4.46-4.47-6.28-2.87-3-7.17-4.15-9.85-7.36-2.22-2.56-3.39-5.8-4.35-9-2.34-7.73-4-15.64-5.77-23.51q-2.76-13.08-5.72-26.1c-3.81-16.25-7.91-32.59-15.09-47.74-3.24-6.38-7-12.46-10.58-18.67-12.77-22.09-25.7-44.09-38.25-66.32C517,745,498.53,711.3,481.47,676.84c-3-5.72-5.54-11.62-8.44-17.37-7.73-16.33-15.09-32.84-21.81-49.61-2.89-6.85-5.28-13.9-8-20.84a406.81,406.81,0,0,1-15.67-53.64c-4.29-20.87-6.76-42.54-3.14-63.7,2.27-13.09,7.38-25.88,16-36.14m1.25,13c.07,2.19-.16,4.43.35,6.58a102.42,102.42,0,0,0,0-13.15,34.19,34.19,0,0,0-.36,6.57Z"/><path class="cls-21" d="M447.08,435.38a27.72,27.72,0,0,1,1.86,5.53c5,16.79,15,31.57,26,45,1.64,1.93,3.55,3.61,5.09,5.64a28,28,0,0,0,3.45,3.87c2.92,2.67,5.63,5.55,8.45,8.33s5.8,5.68,8.55,8.67c3,3.22,6.45,5.87,9.5,9,1.89,2,4,3.69,6,5.61,5.58,5,11,10.25,16.54,15.29,4.32,4.44,9.37,8.11,13.63,12.62,2.1,2.19,4.44,4.18,6.37,6.54,3.49,4.38,8,7.82,11.52,12.18,1.59,1.84,3.49,3.37,5.14,5.16,6.49,7.19,12.27,15,18.35,22.48,1.24,1.79,2.34,3.69,3.67,5.41,2.75,3.63,5.14,7.51,7.62,11.33,2.87,3.77,4.63,8.21,7.18,12.19A195.39,195.39,0,0,1,617.38,655a77.26,77.26,0,0,1,3.11,8.58c.74,2.34,2,4.5,2.46,6.93s1.62,4.79,2.25,7.25a47.89,47.89,0,0,1,1.77,9.07c.16-.4.33-.8.51-1.18-.05,4.53,1.93,8.73,2.11,13.22.12,2.52,1.34,4.83,1.38,7.36.09,3.45.35,6.9.25,10.36-.12,2,.6,4,.62,6,.07,6.62.82,13.22,1.11,19.83a5.64,5.64,0,0,0,1.43,4.22c.74,7.86.91,15.76,1.48,23.63.91,16.09,1.81,32.18,2.8,48.26.09,5.62.88,11.2.89,16.82-2.05-6-3-12.32-5.22-18.28-1.34-4.34-2.7-8.68-4.26-12.95-1.92-4.51-3.23-9.25-5.19-13.74-1.2-3.54-2.93-6.85-4.35-10.28-4.88-12.75-11.29-24.82-17.21-37.1-6.23-11-12.06-22.33-18.92-33-2.68-5-5.72-9.77-8.76-14.55-2.37-3.67-4.48-7.5-7.06-11-2.1-2.84-3.64-6-5.73-8.89-5.86-8-10.61-16.78-16.58-24.72-2.19-3.37-4.81-6.44-6.88-9.9-2.44-3.21-4.29-6.82-6.84-9.94-2.66-3.57-4.7-7.56-7.38-11.11-1.89-2.45-3.44-5.14-5.35-7.57-2.16-2.75-3.79-5.87-5.94-8.64-3.82-5.21-6.91-10.89-10.48-16.27a118.6,118.6,0,0,1-7.8-12q-8.51-13.55-16.42-27.46c-2.84-4.37-4.87-9.18-7.31-13.78-1.26-2.45-2.66-4.84-3.79-7.35-2.05-4.63-4.41-9.12-6.44-13.76-1.86-4.94-4-9.77-5.61-14.81-.78-2.21-1.64-4.39-2.32-6.63-1.19-3.68-1.9-7.51-3.29-11.13-.87-3-1-6.23-2-9.25a98.94,98.94,0,0,1-2-20.57c.09-5.09-.37-10.26.77-15.27Z"/><path class="cls-22" d="M339.8,438.77a19.54,19.54,0,0,0,6,1.37l-.65.29a13.85,13.85,0,0,1-1.4.08c-1.4,2.73-1.61,5.83-1.84,8.84a65.2,65.2,0,0,0-.06,8.2c-1.55-1.73-3.49-3.52-3.56-6-.06-2.75.4-5.48.59-8.22a33.51,33.51,0,0,0,.89-4.55Z"/><path class="cls-23" d="M441.64,448.51a34.19,34.19,0,0,1,.36-6.57,102.42,102.42,0,0,1,0,13.15c-.52-2.16-.28-4.39-.35-6.58Z"/><path class="cls-6" d="M338,460.29c1.35.72,2.86,1.39,4.41.93-.85,2.56-.56,5.28-.38,7.93a276.85,276.85,0,0,0,10.43,59.64,131.23,131.23,0,0,0,6.61,17c1,2.23,3.1,4.41,2.44,7-.74,2.86-2,5.58-2.7,8.45-1,3.92-2.2,7.78-2.85,11.78-1,5.5-1.69,11.07-2.27,16.64-.28,4.4-.26,8.82-.24,13.23.08,3.64-.08,7.3.31,10.93.54,4.37.68,8.78,1.54,13.1,2.31,16.69,7.09,32.93,12.79,48.75a350.86,350.86,0,0,0,17.79,39c5.13,9.76,10.58,19.35,16.48,28.67,2.24,3.25,4.16,6.69,6.4,9.94,2.95,4.36,5.71,8.85,8.91,13,3.51,5.07,6.92,10.22,10.8,15q7.18,9.76,14.84,19.15c2.45,3.52,5.5,6.57,8.08,10,2.14,2.86,4.63,5.42,6.85,8.22,1.83,2.31,3.86,4.46,5.76,6.72,5.87,7,12.25,13.57,18.22,20.5,1.58,1.86,3.3,3.6,5,5.3,3.32,3.14,6,6.88,9.51,9.84,2.53,2.05,4.69,4.51,7.21,6.57,2.13,1.75,3.67,4.06,5.65,6a78.31,78.31,0,0,1,10,12.42A97,97,0,0,1,531,907.84c1.39,3.22,2.22,6.63,3.42,9.92,1.68,4.44,2.8,9.08,4.57,13.5,1.54,3.7,2.59,7.58,4.17,11.26,2.64,7.33,5.62,14.52,8.35,21.81,3.27,8.73,6.78,17.38,10,26.13,1.44,3.49,2.9,7,4.06,10.56s2.75,7.06,3.93,10.66c1.39,4.41,3.06,8.73,4.56,13.11,1.73,4.63,3,9.44,5,14s3.45,9.09,5.38,13.55c2.78,5.7,5.21,11.66,9,16.77.84,1.27,2.5,1.2,3.83,1.48,1.57,5.92,2.54,12,3.8,18,2.06,10,3.55,20,6.3,29.83a66.43,66.43,0,0,0,4,10.64,30.52,30.52,0,0,0,7,10.18,11,11,0,0,0,9.14,2.86,7.35,7.35,0,0,0,4.9-4.2c3.32-6.53,3-14.06,2.94-21.17-.7-10.82-2.56-21.51-4-32.24-.52-4.69-1.11-9.38-1.82-14-.34-4.36-1.33-8.63-1.69-13-3.31-26.43-6.91-52.82-10.27-79.23-.33-1.59-1.82-2.5-2.93-3.52,2.93,1.57,5.94,3.22,8.13,5.8l-.88.74q7.86,60.86,15.89,121.74c.94,4.66,1,9.43,1.45,14.16a62.84,62.84,0,0,1-1.43,17.49,15.65,15.65,0,0,1-5.71,9.46c-2.7,2.31-6.6,2.38-9.89,1.6-3-.66-5.47-2.71-7.57-4.87-4.25-4-6.49-9.52-8.78-14.76-1.28-4.41-3-8.71-4.07-13.17-.66-3.92-1.68-7.77-2.14-11.72-1.14-5.25-2-10.56-3.15-15.81-.65-3.51-1.61-7-1.91-10.53-2.26-.68-3.7-2.62-5.09-4.39-1.54-2.13-2.61-4.56-3.95-6.81-1.43-2.42-2.16-5.18-3.63-7.59-1.14-1.89-1.62-4.07-2.5-6.08-3.89-8.76-6.76-17.92-10.1-26.88C564.86,1010,560.19,996.9,555,984c-1-3-2.56-5.71-3.41-8.73-.89-2.49-2.07-4.86-2.87-7.38s-2.06-4.57-2.79-7c-1.05-3.74-3-7.13-4.16-10.85-1.17-4-3-7.81-4.32-11.8a62.51,62.51,0,0,1-2.91-8.32c-2.11-5.54-3.64-11.29-5.81-16.81a61.76,61.76,0,0,0-5.14-12.57c-1.86-3.67-3.82-7.31-6-10.79-2.65-3.39-5.05-7-7.75-10.33-2.45-2.69-5.12-5.18-7.67-7.78-2.66-2.81-5.74-5.15-8.42-7.93-3.11-2.64-5.58-5.89-8.36-8.85-2.49-2.11-4.26-4.89-6.68-7.07a45.09,45.09,0,0,1-5.34-5.87c-1.23-1.76-2.95-3.1-4.26-4.79a32.91,32.91,0,0,0-3.33-3.55c-1.94-1.82-3.13-4.28-5.16-6s-3-4.1-4.94-5.81a62.66,62.66,0,0,1-6.27-7.51c-2.08-2-3.51-4.53-5.43-6.66-1.71-2.28-3.76-4.27-5.42-6.59-2.89-4.08-6.3-7.75-9.21-11.82a44.45,44.45,0,0,0-3.16-4.21c-1.54-2.06-2.87-4.26-4.54-6.22-2.25-2.56-3.76-5.65-5.94-8.26-2.31-2.8-4-6-6.19-8.9-2.58-3.5-4.65-7.34-7.13-10.92-1.19-1.58-2-3.39-3.16-5-2-2.72-3.36-5.83-5.19-8.66a154.68,154.68,0,0,1-8-13.93c-3.3-5.44-6-11.21-8.89-16.87-1.23-2.3-2-4.81-3.27-7.08s-2.09-4.81-3.21-7.19c-1.84-3.82-3.09-7.88-4.91-11.7s-2.62-8.19-4.32-12.15S359,660,357.65,655.95c-2.59-8-3.93-16.3-5.52-24.53a128.74,128.74,0,0,1-2.31-20.7,160.86,160.86,0,0,1,3.44-43.48c1.13-3.65,1.7-7.45,3.1-11,.59-1.47,1.22-2.92,1.73-4.42-1.52-2.51-2.68-5.21-4.12-7.77-1.14-2.06-1.51-4.44-2.52-6.56a56,56,0,0,1-2.35-7.13c-3.47-8.93-4.6-18.51-6.83-27.78q-2.82-16.37-4-33c0-3.11-.58-6.2-.25-9.3Z"/><circle class="cls-24" cx="436" cy="563.25" r="287.57"/></svg>